<?xml version="1.0" encoding="UTF-8"?>
<!DOCTYPE svg PUBLIC "-//W3C//DTD SVG 1.1//EN" "http://www.w3.org/Graphics/SVG/1.1/DTD/svg11.dtd">
<!-- Creator: CorelDRAW 2018 (64 Bit) -->
<svg xmlns="http://www.w3.org/2000/svg" xml:space="preserve" width="13.9906mm" height="5.9267mm" version="1.1" style="shape-rendering:geometricPrecision; text-rendering:geometricPrecision; image-rendering:optimizeQuality; fill-rule:evenodd; clip-rule:evenodd"
viewBox="0 0 751.87 318.51"
 xmlns:xlink="http://www.w3.org/1999/xlink">
 <defs>
  <style type="text/css">
   <![CDATA[
    .fil2 {fill:white}
    .fil1 {fill:#BDBFC1;fill-rule:nonzero}
    .fil0 {fill:white;fill-rule:nonzero}
   ]]>
  </style>
 </defs>
 <g id="Camada_x0020_1_0">
  <metadata id="CorelCorpID_0Corel-Layer"/>
  <path class="fil0" d="M271.78 44.48c-4.49,-9.33 -50.82,-46.01 -112.52,-44.42 -39.53,1.01 -93.78,22.25 -115.52,56.21 -6.82,10.64 1.07,20.67 13.42,23.93 19.05,4.06 58.99,-15.17 92.47,-29.65l0 0c22.13,-10.1 34.01,-13.9 47.03,-15.71 7.41,-1.05 58.72,-5.96 75.11,9.62l0.01 0.02z"/>
  <path class="fil1" d="M149.63 50.56c4.69,2.88 45.77,2.67 75.08,44.25 10.22,14.48 37.5,9.61 47.52,1.81 10.78,-8.42 11.22,-22.47 11.24,-24.29 0.16,-10.57 -4.15,-20.67 -11.68,-27.83 -16.39,-15.6 -67.71,-10.67 -75.11,-9.63 -13.05,1.81 -24.94,5.63 -47.04,15.71l-0.01 -0.02z"/>
  <path class="fil0" d="M5.59 120.66c-5.83,8.52 -14.42,67.01 17.8,119.65 20.64,33.73 66.16,70.08 106.44,71.94 12.61,0.57 17.36,-11.27 14.01,-23.59 -5.99,-18.55 -42.64,-43.5 -71.91,-65.25l0 0c-19.79,-14.12 -29.04,-22.52 -37.12,-32.9 -4.58,-5.88 -34.52,-47.87 -29.23,-69.85l0.01 0z"/>
  <path class="fil1" d="M71.94 223.4c0.16,-5.5 -20.56,-40.97 0.79,-87.14 7.43,-16.09 -10.43,-37.3 -22.19,-42.05 -12.68,-5.14 -25.08,1.52 -26.67,2.41 -9.22,5.15 -15.83,13.94 -18.27,24.04 -5.3,21.99 24.65,63.95 29.23,69.85 8.08,10.38 17.32,18.78 37.12,32.9l-0.01 -0.02z"/>
  <path class="fil0" d="M204.67 313.08c10.31,0.77 65.25,-21 94.71,-75.24 18.87,-34.74 27.61,-92.35 9.07,-128.16 -5.81,-11.2 -18.45,-9.39 -27.43,-0.35 -13.06,14.47 -16.35,58.68 -20.55,94.91l0 0c-2.32,24.2 -4.97,36.4 -9.92,48.59 -2.81,6.91 -24.2,53.83 -45.89,60.23l0.02 0.02z"/>
  <path class="fil1" d="M260.48 204.25c-4.85,2.62 -25.18,38.29 -75.86,42.89 -17.65,1.61 -27.07,27.68 -25.32,40.24 1.9,13.54 13.85,20.95 15.42,21.89 9.07,5.42 19.98,6.75 29.95,3.81 21.68,-6.41 43.08,-53.32 45.89,-60.23 4.94,-12.18 7.6,-24.39 9.92,-48.59l-0.01 0z"/>
  <path class="fil2" d="M690.18 27.66l12.81 40.06c1.46,4.37 3.5,9.48 4.5,13.74l-35.55 0c0.53,-2.23 1.39,-4.41 2.15,-6.73l13.09 -40.23c0.47,-1.41 0.75,-2.19 1.16,-3.5 0.66,-2.12 0.6,-2.41 1.82,-3.34l0.02 0zm61.28 284.38l-328.34 3.19 328.34 3.28 0 -6.47zm-328.34 -162.29l328.34 3.19 -328.34 3.26 0 -6.45zm0.46 -62.2c0,19.13 9.67,34.97 27.6,42.09 14.24,5.66 35.87,5 49.93,-0.6 11.3,-4.48 20.25,-14.15 23.52,-26.05 1.93,-7.04 2.81,-13.41 2.81,-22.46l0 -79.06c0,-1.04 -0.32,-1.38 -1.35,-1.39l-0.04 0 -25.72 0 0 83.25c0,17.16 -7.88,26.68 -24.33,26.68 -10.78,0 -18.06,-2.79 -22.46,-11.7 -3.85,-7.8 -2.81,-19.8 -2.81,-31.35l0.03 -63.65c0.01,-1.75 0.36,-3.24 -1.45,-3.24l-25.73 0 0 87.47 0 0.01zm116.94 42.55l115.99 0c0.19,-2.36 7.86,-25.48 8.42,-26.66l49.58 0 9.08 26.59 27.86 0.06c-0.2,-2.4 -1.82,-5.66 -2.63,-8.13l-11.68 -32.29c-1.11,-2.85 -2.06,-5.61 -2.95,-8.29l-17.51 -48.46c-1.04,-2.62 -1.93,-5.24 -2.85,-7.91l-8.71 -24.5 -31.34 0c-0.17,2.07 -8.26,24.29 -9.08,26.45l-14.01 39.32c-1.53,4.5 -3.2,8.56 -4.69,13.09 -0.99,3.01 -8.99,24.2 -9.18,26.39l-70.16 0 0 -32.74 61.74 0 0 -22.44 -61.74 0 0 -27.13 66.42 0c1.07,0 1.39,-0.33 1.39,-1.4l0 -21.52 -94 0 0 129.55 0.05 0.01z"/>
  <path class="fil2" d="M423.06 185.82c0,8.28 4.03,12.49 12.09,12.49 8.67,0 13.09,-4.23 13.09,-12.49l0 -19.35 -4.44 0 0 19.35c0,5.64 -2.63,8.47 -8.28,8.47 -5.64,0 -8.07,-2.62 -8.07,-8.47l0 -19.35 -4.44 0 0 19.35 0.04 0zm33.06 11.69l4.03 0 0 -25.22c0.41,1.03 0.8,1.62 1.2,2.24l15.51 22.99 4.63 0 0 -31.05 -4.03 0 0 25.18c-0.42,-0.79 -1.02,-1.81 -1.62,-2.62l-15.12 -22.59 -4.63 0 0 31.05 0.02 0.02zm33.27 0l4.44 0 0 -31.05 -4.44 0 0 31.05zm20.55 0l4.64 0 11.29 -31.05 -4.64 0 -8.86 26.01 -9.48 -26.01 -4.44 0 11.49 31.05 0.01 0zm20.37 0l23.37 0 0 -3.84 -18.95 0 0 -10.5 17.34 0 0 -3.63 -17.34 0 0 -9.26 18.73 0 0 -3.84 -23.17 0 0 31.05 0.02 0.02zm29.83 -31.05l0 31.05 4.43 0 0 -13.32 7.06 0c5.45,0 6.85,0.4 7.05,5.04l0.41 4.03c0,1.81 0.2,3.22 0.81,4.23l5.04 0 0 -0.81c-1,-0.62 -1.41,-1.62 -1.41,-3.65l-0.41 -5.04c-0.2,-3.42 -0.81,-5.02 -3.63,-5.83 2.82,-1.41 4.44,-3.82 4.44,-7.05 0,-3.61 -1.62,-6.24 -4.23,-7.65 -2.02,-1 -4.22,-1 -7.05,-1l-12.49 0 -0.02 0zm4.23 3.64l7.65 0c4.84,0 7.26,0.78 7.26,5.04 0,4.22 -2.22,5.44 -7.26,5.44l-7.65 0 0 -10.47 0 -0.01zm25.2 17.13c0.19,7.25 4.84,11.08 12.69,11.08 7.65,0 12.3,-3.84 12.3,-9.68 0,-2.62 -1.02,-4.63 -2.62,-6.05 -1.82,-1.41 -4.23,-2.03 -7.46,-2.63 -6.85,-1.6 -9.67,-1.81 -9.67,-5.83 0,-3.03 2.62,-5.04 7.05,-5.04 4.44,0 7.26,2.42 7.65,6.45l4.03 0c0,-6.04 -4.23,-9.87 -11.49,-9.87 -7.05,0 -11.49,3.84 -11.49,9.27 0,5.44 3.63,6.85 10.89,8.46 5.64,1.41 8.65,1.82 8.65,5.65 0,3.42 -2.82,5.65 -8.05,5.65 -5.04,0 -8.28,-2.82 -8.28,-7.45l-4.23 0 0.02 -0.01zm31.65 10.27l4.23 0 0 -31.05 -4.23 0 0 31.05zm12.51 0l12.09 0c8.67,0 14.12,-5.85 14.12,-15.93 0,-9.87 -5.04,-15.11 -13.91,-15.11l-12.31 0 0 31.05 0.01 -0.02zm11.9 -27.42c6.25,0 9.67,4.03 9.67,11.69 0,7.86 -3.22,11.9 -9.67,11.9l-7.65 0 0 -23.59 7.65 0zm16.72 27.42l4.64 0 3.42 -9.27 12.69 0 3.42 9.27 4.84 0 -12.09 -31.05 -4.84 0 -12.09 31.05zm9.48 -12.91l5.04 -13.71 5.04 13.71 -10.08 0zm23.79 12.91l12.3 0c8.65,0 13.92,-5.85 13.92,-15.93 0,-9.87 -4.85,-15.11 -13.92,-15.11l-12.3 0 0 31.05 0 -0.02zm12.09 -27.42c6.25,0 9.67,4.03 9.67,11.69 0,7.86 -3.42,11.9 -9.67,11.9l-7.65 0 0 -23.59 7.65 0zm20.77 27.42l23.39 0 0 -3.84 -18.95 0 0 -10.5 17.13 0 0 -3.62 -17.13 0 0 -9.27 18.55 0 0 -3.84 -22.98 0 0 31.05 0 0.02zm-305.19 51.59l12.09 0c8.86,0 14.11,-5.64 14.11,-15.91 0,-9.89 -4.84,-15.12 -13.92,-15.12l-12.3 0 0 31.04 0.02 0zm11.9 -27.4c6.24,0 9.87,4.03 9.87,11.7 0,7.86 -3.42,11.9 -9.87,11.9l-7.45 0 0 -23.59 7.45 0 0 -0.02zm18.34 11.9c0,10.47 5.85,16.51 15.31,16.51 9.48,0 15.31,-6.06 15.31,-16.51 0,-10.29 -5.83,-16.34 -15.31,-16.34 -9.48,0 -15.31,6.04 -15.31,16.34zm4.63 0c0,-8.05 4.03,-12.69 10.68,-12.69 6.66,0 10.88,4.64 10.88,12.69 0,8.05 -4.22,12.69 -10.88,12.69 -6.66,0 -10.68,-4.64 -10.68,-12.69zm43.54 15.52l23.38 0 0 -3.83 -18.93 0 0 -10.49 17.34 0 0 -3.61 -17.34 0 0 -9.27 18.74 0 0 -3.83 -23.19 0 0 31.04 0 -0.01zm27.21 -10.08c0.41,7.05 4.85,10.89 12.71,10.89 7.65,0 12.49,-3.84 12.49,-9.67 0,-2.63 -1.02,-4.62 -2.63,-6.06 -1.81,-1.41 -4.44,-2.01 -7.45,-2.62 -6.85,-1.62 -9.87,-1.81 -9.87,-5.83 0,-2.82 2.82,-5.04 7.05,-5.04 4.63,0 7.46,2.41 7.65,6.45l4.23 0c0,-6.04 -4.44,-9.87 -11.48,-9.87 -7.06,0 -11.49,3.84 -11.49,9.27 0,5.45 3.62,6.86 10.68,8.48 5.85,1.39 8.88,2.02 8.88,5.64 0,3.42 -3.01,5.66 -8.05,5.66 -5.04,0 -8.28,-2.82 -8.48,-7.28l-4.23 0 0 -0.02zm37.7 10.08l4.44 0 0 -27.21 10.08 0 0 -3.82 -24.59 0 0 3.82 10.08 0 0 27.21 -0.01 0zm13.31 0l4.43 0 3.42 -9.27 12.69 0 3.42 9.27 4.84 0 -12.09 -31.04 -4.85 0 -11.9 31.04 0.03 0zm9.26 -12.91l5.04 -13.7 5.04 13.7 -10.08 0zm22.78 12.91l12.3 0c8.67,0 14.12,-5.64 14.12,-15.91 0,-9.89 -5.05,-15.12 -14.12,-15.12l-12.3 0 0 31.04zm12.1 -27.4c6.24,0 9.68,4.03 9.68,11.7 0,7.86 -3.24,11.9 -9.68,11.9l-7.65 0 0 -23.59 7.65 0 0 -0.01zm18.35 11.9c0,10.47 5.85,16.51 15.31,16.51 9.49,0 15.32,-6.06 15.32,-16.51 0,-10.29 -5.85,-16.34 -15.32,-16.34 -9.48,0 -15.31,6.04 -15.31,16.34zm4.44 0c0,-8.05 4.21,-12.69 10.87,-12.69 6.66,0 10.68,4.64 10.68,12.69 0,8.05 -4.03,12.69 -10.68,12.69 -6.66,0 -10.87,-4.64 -10.87,-12.69zm43.93 15.51l12.09 0c8.88,0 14.11,-5.64 14.11,-15.91 0,-9.89 -4.84,-15.12 -13.9,-15.12l-12.3 0 0 31.04zm11.9 -27.4c6.24,0 9.87,4.03 9.87,11.7 0,7.87 -3.42,11.91 -9.87,11.91l-7.45 0 0 -23.59 7.45 0 0 -0.02zm18.54 11.91c0,10.47 5.85,16.51 15.31,16.51 9.49,0 15.13,-6.06 15.13,-16.51 0,-10.29 -5.64,-16.34 -15.13,-16.34 -9.48,0 -15.31,6.04 -15.31,16.34zm4.44 0c0,-8.06 4.23,-12.69 10.87,-12.69 6.66,0 10.68,4.64 10.68,12.69 0,8.05 -4.03,12.69 -10.68,12.69 -6.64,0 -10.87,-4.64 -10.87,-12.69zm-301.79 67.51l4.44 0 3.63 -9.48 12.69 0 3.42 9.48 4.63 0 -11.89 -31.24 -5.04 0 -11.9 31.24 0.02 0zm9.28 -13.09l5.04 -13.71 5.04 13.71 -10.08 0zm38.45 -13.52c0.2,1.02 0.41,1.81 0.81,2.82l8.05 23.79 4.23 0 8.07 -23.79c0.2,-0.79 0.4,-1.81 0.8,-2.82l0 26.61 4.23 0 0 -31.24 -6.24 0 -8.26 23.79c-0.2,0.8 -0.41,1.62 -0.6,2.63 -0.19,-0.6 -0.41,-1.62 -0.81,-2.63l-8.05 -23.79 -6.24 0 0 31.24 4.03 0 0 -26.61zm41.08 26.61l4.44 0 3.42 -9.48 12.69 0 3.42 9.48 4.85 0 -12.09 -31.24 -4.84 0 -11.9 31.24zm9.27 -13.09l5.04 -13.71 5.04 13.71 -10.08 0zm32.21 13.09l24.79 0 0 -3.82 -19.35 0 19.35 -23.39 0 -4.03 -23.59 0 0 3.84 18.55 0 -19.75 23.79 0 3.61zm39.26 -15.52c0,10.29 5.84,16.34 15.31,16.34 9.27,0 15.12,-6.06 15.12,-16.34 0,-10.47 -5.85,-16.51 -15.12,-16.51 -9.47,0 -15.31,6.04 -15.31,16.51zm4.43 0c0,-8.28 4.23,-12.9 10.89,-12.9 6.45,0 10.68,4.63 10.68,12.9 0,8.07 -4.23,12.69 -10.68,12.69 -6.66,0 -10.89,-4.63 -10.89,-12.69zm44.15 15.52l4.23 0 0 -25.2c0.2,0.81 0.6,1.62 1.2,2.22l15.31 22.99 4.84 0 0 -31.24 -4.23 0 0 25.2c-0.41,-0.79 -1.01,-1.62 -1.4,-2.62l-15.13 -22.59 -4.85 0 0 31.24 0.03 0zm41.34 0l4.63 0 3.42 -9.48 12.7 0 3.42 9.48 4.84 0 -12.1 -31.24 -4.83 0 -12.09 31.24zm9.48 -13.09l5.04 -13.71 5.04 13.71 -10.08 0zm33.86 2.82c0.41,7.05 4.84,11.1 12.7,11.1 7.65,0 12.3,-4.03 12.3,-9.89 0,-2.62 -0.81,-4.63 -2.62,-5.83 -1.82,-1.62 -4.23,-2.03 -7.26,-2.82 -6.85,-1.62 -9.87,-1.81 -9.87,-5.85 0,-2.82 2.63,-4.84 7.05,-4.84 4.63,0 7.26,2.23 7.65,6.45l4.23 0c0,-6.24 -4.44,-10.08 -11.49,-10.08 -7.27,0 -11.7,3.82 -11.7,9.26 0,5.44 3.84,6.85 10.88,8.65 5.85,1.22 8.88,1.81 8.88,5.45 0,3.42 -3.01,5.65 -8.06,5.65 -5.04,0 -8.28,-2.83 -8.47,-7.27l-4.23 0 -0.01 0.01z"/>
  <polygon class="fil2" points="366.51,0.08 375.71,0.08 375.71,318.51 366.51,318.51 "/>
 </g>
</svg>
